<?xml version="1.0" encoding="UTF-8" standalone="no"?>
<!-- Uploaded to: SVG Repo, www.svgrepo.com, Generator: SVG Repo Mixer Tools -->

<svg
   fill="#000000"
   width="512"
   height="512"
   viewBox="0 0 19.692308 19.692308"
   id="icon"
   version="1.1"
   sodipodi:docname="CheckboxChecked.svg"
   inkscape:version="1.4.2 (f4327f4, 2025-05-13)"
   xmlns:inkscape="http://www.inkscape.org/namespaces/inkscape"
   xmlns:sodipodi="http://sodipodi.sourceforge.net/DTD/sodipodi-0.dtd"
   xmlns="http://www.w3.org/2000/svg"
   xmlns:svg="http://www.w3.org/2000/svg"
   xmlns:rdf="http://www.w3.org/1999/02/22-rdf-syntax-ns#"
   xmlns:cc="http://creativecommons.org/ns#"
   xmlns:dc="http://purl.org/dc/elements/1.1/">
  <sodipodi:namedview
     id="namedview1"
     pagecolor="#ffffff"
     bordercolor="#000000"
     borderopacity="0.25"
     inkscape:showpageshadow="2"
     inkscape:pageopacity="0.0"
     inkscape:pagecheckerboard="0"
     inkscape:deskcolor="#d1d1d1"
     inkscape:zoom="1.00144"
     inkscape:cx="168.75699"
     inkscape:cy="429.88098"
     inkscape:window-width="2560"
     inkscape:window-height="1351"
     inkscape:window-x="2391"
     inkscape:window-y="-9"
     inkscape:window-maximized="1"
     inkscape:current-layer="icon" />
  <defs
     id="defs1">
    <style
       id="style1">.cls-1{fill:none;}</style>
  </defs>
  <title
     id="title1">checkbox--checked</title>
  <path
     d="M 18.051282,0 H 1.6410256 A 1.6410256,1.6410256 0 0 0 0,1.6410256 V 18.051282 a 1.6410256,1.6410256 0 0 0 1.6410256,1.641026 H 18.051282 a 1.6410256,1.6410256 0 0 0 1.641026,-1.641026 V 1.6410256 A 1.6410256,1.6410256 0 0 0 18.051282,0 Z M 1.6410256,18.051282 V 1.6410256 H 18.051282 V 18.051282 Z"
     id="path1"
     style="stroke-width:0.820513" />
  <polygon
     points="14,21.5 9,16.54 10.59,15 14,18.35 21.41,11 23,12.58 "
     id="polygon1"
     transform="matrix(0.82051282,0,0,0.82051282,-3.2820511,-3.4871793)" />
  <rect
     id="_Transparent_Rectangle_"
     data-name="&lt;Transparent Rectangle&gt;"
     class="cls-1"
     width="32"
     height="32"
     x="0"
     y="0" />
  <metadata
     id="metadata1">
    <rdf:RDF>
      <cc:Work
         rdf:about="">
        <dc:title>checkbox--checked</dc:title>
      </cc:Work>
    </rdf:RDF>
  </metadata>
</svg>
