<svg style="height: 512px; width: 512px;" xmlns="http://www.w3.org/2000/svg" viewBox="0 0 512 512"><path d="M0 0h512v512H0z" fill="#000005" fill-opacity="0"></path><g class="" style="" transform="translate(0,0)"><path d="M196 16a30 30 0 0 0-30 30v120H46a30 30 0 0 0-30 30v120a30 30 0 0 0 30 30h120v120a30 30 0 0 0 30 30h120a30 30 0 0 0 30-30V346h120a30 30 0 0 0 30-30V196a30 30 0 0 0-30-30H346V46a30 30 0 0 0-30-30H196z" fill="#808080" fill-opacity="1" transform="translate(0, 0) scale(1, 1) rotate(-45, 256, 256) skewX(0) skewY(0)"></path></g></svg>